<?xml version="1.0" encoding="utf-8"?>
<svg xmlns="http://www.w3.org/2000/svg" id="Layer_2" viewBox="0 0 201.15 175.61">
  <defs>
    <style>.cls-1{fill:url(#New_Gradient_Swatch_1);}</style>
    <linearGradient gradientTransform="translate(-.04 14.72)" gradientUnits="userSpaceOnUse" id="New_Gradient_Swatch_1" x1="194.2" x2=".05" y1="-12.52" y2="148.05">
      <stop offset="0" stop-color="#ffd380"/>
      <stop offset="1" stop-color="#e59731"/>
    </linearGradient>
  </defs>
  <g id="Layer_1-2">
    <path class="cls-1" d="M41.99,0h131.43c6.85,0,12.28.5,16.3,1.51,4.01,1,6.94,2.66,8.77,4.96,1.83,2.3,2.71,5.37,2.66,9.21-.06,3.84-.74,8.59-2.04,14.26l-1.06,4.61c-1.3,5.55-2.65,10.27-4.07,14.17-1.42,3.9-3.66,7.26-6.73,10.1l4.78,2.3c2.48,1.18,4.28,2.45,5.4,3.81,1.12,1.36,1.8,2.92,2.04,4.69.24,1.77.12,3.84-.35,6.2-.47,2.36-1.12,5.25-1.95,8.68l-8.32,36.14c-1.3,5.67-2.81,10.42-4.52,14.26-1.72,3.84-4.02,6.91-6.91,9.21-2.9,2.3-6.58,3.96-11.07,4.96-4.49,1-10.16,1.51-17,1.51H46.6S0,175.61,0,175.61L41.99,0ZM138.53,116.73c3.3,0,5.81-.06,7.53-.18,1.71-.12,3.01-.5,3.9-1.15.89-.65,1.51-1.71,1.86-3.19.36-1.48.83-3.57,1.42-6.29l4.07-17.54c.71-2.83,1.15-5.08,1.33-6.73.18-1.65.15-3.01-.09-4.07-.24-1.06-.71-1.89-1.42-2.48s-1.59-1.24-2.66-1.95l-3.54-2.3-89.81,14.88-7.08,31h84.49ZM158.54,37.38c.24-.83.38-1.48.44-1.95.06-.47-.12-.86-.53-1.15-.42-.29-1.18-.47-2.3-.53-1.12-.06-2.75-.09-4.87-.09h-78.12s-4.96,21.97-4.96,21.97l89.27-14.35,1.06-3.9Z"/>
  </g>
</svg>